<svg xmlns="http://www.w3.org/2000/svg" width="24" height="24" viewBox="0 0 24 24">
    <path
        d="M20.774 10.157L19.406 6.05295C19.2075 5.45543 18.8258 4.93565 18.3151 4.56746C17.8043 4.19927 17.1906 4.00139 16.561 4.00195H14.002V2.00195H10.002V4.00195H7.44295C6.81334 4.00139 6.19957 4.19927 5.68884 4.56746C5.17811 4.93565 4.7964 5.45543 4.59795 6.05295L3.22995 10.157C2.86618 10.3092 2.55551 10.5655 2.33702 10.8938C2.11853 11.2221 2.00195 11.6076 2.00195 12.002V17.002C2.00195 17.74 2.40595 18.378 3.00195 18.725V21.002C3.00195 21.2672 3.10731 21.5215 3.29485 21.7091C3.48238 21.8966 3.73674 22.002 4.00195 22.002H5.00195C5.26717 22.002 5.52152 21.8966 5.70906 21.7091C5.8966 21.5215 6.00195 21.2672 6.00195 21.002V19.002H18.002V21.002C18.002 21.2672 18.1073 21.5215 18.2948 21.7091C18.4824 21.8966 18.7367 22.002 19.002 22.002H20.002C20.2672 22.002 20.5215 21.8966 20.7091 21.7091C20.8966 21.5215 21.002 21.2672 21.002 21.002V18.725C21.3053 18.551 21.5575 18.3001 21.7331 17.9976C21.9086 17.6951 22.0014 17.3517 22.002 17.002V12.002C22.002 11.6076 21.8854 11.2221 21.6669 10.8938C21.4484 10.5655 21.1377 10.3092 20.774 10.157ZM7.44295 6.00195H16.56C16.991 6.00195 17.373 6.27595 17.509 6.68595L18.615 10.002H5.38895L6.49395 6.68595C6.5603 6.48675 6.68767 6.31348 6.858 6.19071C7.02833 6.06794 7.23299 6.0019 7.44295 6.00195ZM5.50195 16.002C5.3049 16.0019 5.1098 15.963 4.92777 15.8875C4.74575 15.8121 4.58037 15.7015 4.44109 15.5621C4.3018 15.4227 4.19133 15.2573 4.11598 15.0752C4.04063 14.8931 4.00189 14.698 4.00195 14.501C4.00202 14.3039 4.04089 14.1088 4.11636 13.9268C4.19183 13.7448 4.30241 13.5794 4.44179 13.4401C4.58117 13.3008 4.74662 13.1903 4.9287 13.115C5.11077 13.0396 5.3059 13.0009 5.50295 13.001C5.90091 13.0011 6.28252 13.1593 6.56382 13.4408C6.84512 13.7223 7.00309 14.104 7.00295 14.502C7.00282 14.8999 6.8446 15.2815 6.56311 15.5628C6.28162 15.8441 5.89991 16.0021 5.50195 16.002ZM18.502 16.002C18.3049 16.0019 18.1098 15.963 17.9278 15.8875C17.7457 15.8121 17.5804 15.7015 17.4411 15.5621C17.3018 15.4227 17.1913 15.2573 17.116 15.0752C17.0406 14.8931 17.0019 14.698 17.002 14.501C17.002 14.3039 17.0409 14.1088 17.1164 13.9268C17.1918 13.7448 17.3024 13.5794 17.4418 13.4401C17.5812 13.3008 17.7466 13.1903 17.9287 13.115C18.1108 13.0396 18.3059 13.0009 18.503 13.001C18.9009 13.0011 19.2825 13.1593 19.5638 13.4408C19.8451 13.7223 20.0031 14.104 20.003 14.502C20.0028 14.8999 19.8446 15.2815 19.5631 15.5628C19.2816 15.8441 18.8999 16.0021 18.502 16.002Z" />
</svg>