<svg xmlns="http://www.w3.org/2000/svg" width="20" height="20" viewBox="0 0 20 20">
    <path fill-rule="evenodd" clip-rule="evenodd"
        d="M9.99967 0.833014C11.2037 0.831595 12.3961 1.06806 13.5084 1.52882C14.6208 1.98958 15.6311 2.66554 16.4814 3.5179C17.3338 4.36824 18.0097 5.3786 18.4705 6.49095C18.9313 7.60329 19.1677 8.79569 19.1663 9.99967C19.1678 11.2037 18.9313 12.3961 18.4705 13.5084C18.0098 14.6208 17.3338 15.6311 16.4814 16.4814C15.6311 17.3338 14.6208 18.0098 13.5084 18.4705C12.3961 18.9313 11.2037 19.1678 9.99966 19.1663C8.79568 19.1677 7.60328 18.9313 6.49095 18.4705C5.37862 18.0098 4.36827 17.3338 3.51793 16.4814C2.66556 15.6311 1.98958 14.6208 1.52882 13.5084C1.06806 12.3961 0.831594 11.2037 0.833014 9.99966C0.831622 8.79568 1.06809 7.60328 1.52885 6.49095C1.98961 5.37861 2.66558 4.36826 3.51793 3.51793C4.36826 2.66558 5.37861 1.98961 6.49095 1.52885C7.60329 1.06809 8.79569 0.83162 9.99967 0.833014ZM12.8706 3.06861C11.9608 2.69175 10.9855 2.4984 10.0008 2.49968H9.99862C9.01386 2.49843 8.03856 2.69178 7.12877 3.06864C6.21898 3.44551 5.39263 3.99844 4.6972 4.69567L4.69567 4.6972C3.99844 5.39263 3.44551 6.21898 3.06864 7.12877C2.69178 8.03856 2.49843 9.01386 2.49968 9.99862V10.0008C2.4984 10.9855 2.69175 11.9608 3.06861 12.8706C3.44547 13.7804 3.99841 14.6067 4.69566 15.3021L4.6972 15.3037C5.39263 16.0009 6.21898 16.5539 7.12877 16.9307C8.03856 17.3076 9.01386 17.5009 9.99862 17.4997H10.0008C10.9855 17.501 11.9608 17.3076 12.8706 16.9307C13.7804 16.5539 14.6067 16.0009 15.3021 15.3037L15.3037 15.3021C16.0009 14.6067 16.5539 13.7804 16.9307 12.8706C17.3076 11.9608 17.501 10.9855 17.4997 10.0008V9.99862C17.5009 9.01386 17.3076 8.03856 16.9307 7.12877C16.5539 6.21898 16.0009 5.39263 15.3037 4.6972L15.3021 4.69566C14.6067 3.99841 13.7804 3.44547 12.8706 3.06861Z" />
    <path fill-rule="evenodd" clip-rule="evenodd"
        d="M9.99967 15.4163C10.2759 15.4163 10.5409 15.3066 10.7362 15.1112C10.9316 14.9159 11.0413 14.6509 11.0413 14.3747C11.0413 14.0984 10.9316 13.8335 10.7362 13.6381C10.5409 13.4428 10.2759 13.333 9.99967 13.333C9.72341 13.333 9.45846 13.4428 9.2631 13.6381C9.06775 13.8335 8.95801 14.0984 8.95801 14.3747C8.95801 14.6509 9.06775 14.9159 9.2631 15.1112C9.45846 15.3066 9.72341 15.4163 9.99967 15.4163Z" />
    <path fill-rule="evenodd" clip-rule="evenodd"
        d="M9.99935 4.16602C10.4596 4.16602 10.8327 4.53911 10.8327 4.99935V11.666C10.8327 12.1263 10.4596 12.4993 9.99935 12.4993C9.53911 12.4993 9.16602 12.1263 9.16602 11.666V4.99935C9.16602 4.53911 9.53911 4.16602 9.99935 4.16602Z" />
</svg>