<svg xmlns="http://www.w3.org/2000/svg" width="14" height="22" viewBox="0 0 14 22">

    <path
        d="M0.703125 6.1875C0.703125 4.54647 1.36687 2.97266 2.54835 1.81228C3.72983 0.651896 5.33226 0 7.00312 0C8.67399 0 10.2764 0.651896 11.4579 1.81228C12.6394 2.97266 13.3031 4.54647 13.3031 6.1875C13.3031 7.82853 12.6394 9.40234 11.4579 10.5627C10.2764 11.7231 8.67399 12.375 7.00312 12.375C5.33226 12.375 3.72983 11.7231 2.54835 10.5627C1.36687 9.40234 0.703125 7.82853 0.703125 6.1875ZM7.00312 3.4375C7.38812 3.4375 7.70312 3.12813 7.70312 2.75C7.70312 2.37187 7.38812 2.0625 7.00312 2.0625C4.68437 2.0625 2.80312 3.91016 2.80312 6.1875C2.80312 6.56563 3.11812 6.875 3.50312 6.875C3.88812 6.875 4.20312 6.56563 4.20312 6.1875C4.20312 4.6707 5.45875 3.4375 7.00312 3.4375ZM5.60313 20.625V13.6254C6.52879 13.7916 7.47746 13.7916 8.40312 13.6254V20.625C8.40312 21.3855 7.7775 22 7.00312 22C6.22875 22 5.60313 21.3855 5.60313 20.625Z" />


</svg>