<svg xmlns="http://www.w3.org/2000/svg" width="6" height="5" viewBox="0 0 6 5">
    <path fill-rule="evenodd" clip-rule="evenodd"
        d="M0.646447 0.146447C0.841709 -0.0488155 1.15829 -0.0488155 1.35355 0.146447L3 1.79289L4.64645 0.146447C4.84171 -0.0488155 5.15829 -0.0488155 5.35355 0.146447C5.54882 0.341709 5.54882 0.658291 5.35355 0.853553L3.70711 2.5L5.35355 4.14645C5.54882 4.34171 5.54882 4.65829 5.35355 4.85355C5.15829 5.04882 4.84171 5.04882 4.64645 4.85355L3 3.20711L1.35355 4.85355C1.15829 5.04882 0.841709 5.04882 0.646447 4.85355C0.451184 4.65829 0.451184 4.34171 0.646447 4.14645L2.29289 2.5L0.646447 0.853553C0.451184 0.658291 0.451184 0.341709 0.646447 0.146447Z" />
</svg>