<svg xmlns="http://www.w3.org/2000/svg" width="32" height="32" viewBox="0 0 32 32" fill="none">
    <path
        d="M24.4853 23.1493L16 31.6346L7.51467 23.1493C5.83646 21.4711 4.69358 19.3329 4.23057 17.0051C3.76756 14.6773 4.00521 12.2645 4.91346 10.0718C5.82172 7.87912 7.35979 6.00499 9.33318 4.68642C11.3066 3.36785 13.6266 2.66406 16 2.66406C18.3734 2.66406 20.6934 3.36785 22.6668 4.68642C24.6402 6.00499 26.1783 7.87912 27.0865 10.0718C27.9948 12.2645 28.2324 14.6773 27.7694 17.0051C27.3064 19.3329 26.1636 21.4711 24.4853 23.1493ZM16 17.3306C16.7072 17.3306 17.3855 17.0497 17.8856 16.5496C18.3857 16.0495 18.6667 15.3712 18.6667 14.664C18.6667 13.9567 18.3857 13.2784 17.8856 12.7783C17.3855 12.2782 16.7072 11.9973 16 11.9973C15.2928 11.9973 14.6145 12.2782 14.1144 12.7783C13.6143 13.2784 13.3333 13.9567 13.3333 14.664C13.3333 15.3712 13.6143 16.0495 14.1144 16.5496C14.6145 17.0497 15.2928 17.3306 16 17.3306Z"
        fill="#FF6939" />
</svg>